# xmcd
#
# Track frame offsets:
#	150
#	11282
#	34015
#	54652
#	74055
#	92825
#	105375
#	123727
#	144280
#	155467
#	173687
#	187347
#	203647
#	220887
#	235255
#	259422
#	276182
#	286782
#	304350
#
# Disc length: 4388 seconds
#
# Revision: 2
# Processed by: cddbd v1.4b42PL1 Copyright (c) Steve Scherf et al.
# Submitted via: EZCDDA 4.3.2
#
DISCID=1c112213
DTITLE=Chitãozinho and Xororó - Irmão Coragem - 30 anos ao vivo
DYEAR=1900
DGENRE=
TTITLE0=Irmãos Coragem
TTITLE1=Medley de Viola- Obras de poeta (Os Passarinhos) - Fogão de lenha - No
TTITLE1=rancho fundo
TTITLE2=Um dois três
TTITLE3=Meu Disfarce
TTITLE4=Deslizes
TTITLE5=Rebola
TTITLE6=Medley Polcas - Galopeira - Vá pro inferno com seu amor
TTITLE7=Me deixa ficar
TTITLE8=Medley Chamamé - 60 dias apaixonado - Sorriso mudo
TTITLE9=Solidão
TTITLE10=Fio de cabelo
TTITLE11=O amor é lindo
TTITLE12=Medley Country - Bailão de peão - Na aba do meu chapéu
TTITLE13=Som da viola
TTITLE14=Evidências
TTITLE15=Coração sertanejo
TTITLE16=Alô
TTITLE17=Se Deus Me Ouvisse
TTITLE18=Corpo e alma
EXTD=
EXTT0=
EXTT1=
EXTT2=
EXTT3=
EXTT4=
EXTT5=
EXTT6=
EXTT7=
EXTT8=
EXTT9=
EXTT10=
EXTT11=
EXTT12=
EXTT13=
EXTT14=
EXTT15=
EXTT16=
EXTT17=
EXTT18=
PLAYORDER=
